# xmcd
#
# Track frame offsets: 
#        150
#        11975
#        28237
#        40150
#        53437
#        62537
#        78375
#        91550
#        104837
#        124462
#        137637
#        151387
#        165662
#        180462
#        192262
#        209412
#
# Disc length: 2978 seconds
#
# Revision: 9
# Processed by: cddbd v1.5.2PL0 Copyright (c) Steve Scherf et al.
# Submitted via: ExactAudioCopy v0.99pb5
#
DISCID=d60ba010
DTITLE=Various Artist - Country Hits [CD 1)
DYEAR=1995
DGENRE=Country
TTITLE0=Johnny Cash - Ring of Fire
TTITLE1=Charlie Daniels Band - The Devil Went Down to Georgia
TTITLE2=Guy Mitchell - Heartaches by the Number
TTITLE3=Charlie Rich - Behind Closed Doors
TTITLE4=Frankie Laine - Rawhide
TTITLE5=Willie Nelson - Always On My Mind
TTITLE6=Tanya Tucker - Delta Dawn
TTITLE7=Tammy Wynette - D.I.V.O.R.C.E.
TTITLE8=Marty Robbins - El Paso
TTITLE9=David Houston - Almost Persuaded
TTITLE10=Lefty Frizzell - Saginaw, Michigan
TTITLE11=Charlie McClain - Radio Heart
TTITLE12=Rodney Crowell - I Couldn't Leave You If I Tried
TTITLE13=Johnny Paycheck - Take This Job And Shove It
TTITLE14=Ray Price - For the Good Times
TTITLE15=George Jones - The Grand Tour
EXTD=
EXTT0=
EXTT1=
EXTT2=
EXTT3=
EXTT4=
EXTT5=
EXTT6=
EXTT7=
EXTT8=
EXTT9=
EXTT10=
EXTT11=
EXTT12=
EXTT13=
EXTT14=
EXTT15=
PLAYORDER=
